<svg xmlns:xlink="http://www.w3.org/1999/xlink" id="Layer_1" data-name="Layer 1" xmlns="http://www.w3.org/2000/svg" viewBox="0 0 871.71 920.7" width="871.71"  height="920.7" >
  <path d="M792.25,35.07c-238.05-.01-476.11,0-714.16,0-29.14,0-54.45,17.09-64.62,44.16-1.94,5.16-2.87,11-2.87,16.53-.14,241.42-.12,482.84-.12,724.27,0,27.34,15.56,50.23,41.26,60.58,4.39,1.77,8.86,3.36,13.3,5.03H804.94c9.36-4.44,19.54-7.7,27.91-13.57,18.85-13.21,28.32-32.09,28.33-55.27,.05-237.45,.05-474.89,.06-712.34,0-38.74-30.44-69.39-68.98-69.39Zm-456.75,490.09c-.72,33.15-32.35,64.03-66.19,65.3-28.08,1.05-56.23,.23-84.35,.19-.79,0-1.58-.42-2.79-.77V322.25c1.58-.27,3.19-.77,4.8-.78,27.27-.04,54.54-.5,81.8,.11,33.42,.74,66.08,32.25,66.76,65.68,.93,45.95,.97,91.96-.02,137.91Zm165.44,65.2c-2.58,.12-5.3,.36-8.03,.37-31.25,.03-62.5,.04-93.75,0-17.59-.02-30.71-11.87-32.4-29.33-.46-4.79-.61-9.63-.62-14.44-.04-62.21,.01-124.41-.06-186.62-.01-11.71,1.37-23.09,11.31-30.66,4.96-3.78,11.41-7.75,17.26-7.87,35.18-.73,70.39-.36,106.2-.36v48.36c-20.11,0-39.92-.07-59.73,.04-8.19,.05-19.82-2.64-23.65,1.57-4.38,4.83-2.07,15.94-2.24,24.33-.23,11.56-.06,23.13-.06,35.97h52.26v48.83h-51.65v61.35h85.14v48.45Zm220-223.6c-16.31,61.43-32.27,122.96-49.38,184.17-3,10.73-9.44,21.34-16.8,29.82-12.63,14.56-33.82,14.73-46.64,.34-7.48-8.39-14.15-18.96-17.11-29.67-20.64-74.87-40.22-150.03-60.1-225.11-.35-1.32-.23-2.77-.38-4.86,16.71,0,33.15-.19,49.58,.28,1.76,.05,4.35,3.68,4.98,6.07,14.3,54.07,28.37,108.2,42.5,162.31,.96,3.68,2.08,7.31,4.58,10.73,15.54-59.72,31.07-119.43,46.62-179.16h53.86c-3.98,15.34-7.76,30.24-11.71,45.1Z"></path>
  <path d="M230.39,542v-170.99c12.08,0,24.08-1.34,35.63,.35,13.41,1.96,21.08,12.64,21.23,27.83,.37,38.01,.45,76.03-.03,114.03-.22,17.33-9.8,27.04-27.27,28.63-9.51,.87-19.16,.15-29.56,.15Z"></path>
</svg>